<svg xmlns="http://www.w3.org/2000/svg" xmlns:xlink="http://www.w3.org/1999/xlink" width="4050" height="550" viewBox="0 0 4050 550">
  <defs>
    <clipPath id="clip-dscmescoe_lockup_horizontal_white">
      <rect width="4050" height="550"/>
    </clipPath>
  </defs>
  <g id="dscmescoe_lockup_horizontal_white" clip-path="url(#clip-dscmescoe_lockup_horizontal_white)">
    <rect id="Rectangle_1" data-name="Rectangle 1" width="4075.683" height="396.54" transform="translate(-10 -13.721)" fill="none"/>
    <g id="Group_5" data-name="Group 5">
      <g id="Group_1" data-name="Group 1">
        <path id="Path_1" data-name="Path 1" d="M778.919,75.275h66.473q33.849,0,59.087,14a96.431,96.431,0,0,1,38.776,38.93q13.539,24.927,13.541,57.24t-13.541,57.24a96.4,96.4,0,0,1-38.776,38.931q-25.238,14.007-59.087,14H778.919Zm66.473,195.418q39.078,0,62.011-22.465t22.927-62.78q0-40.312-22.927-62.78T845.392,100.2H804.77v170.49Z" fill="#fff"/>
        <path id="Path_2" data-name="Path 2" d="M1008.8,289.774a74.694,74.694,0,0,1-27.851-29.7q-10-18.925-10-42.622a93.5,93.5,0,0,1,9.386-41.854,75.949,75.949,0,0,1,26.621-30.466q17.23-11.382,40.006-11.387,23.082,0,40.007,10.31a68.485,68.485,0,0,1,26.005,28.466q9.073,18.162,9.078,41.545a30.616,30.616,0,0,1-.923,8H997.107q.922,17.851,8.617,30.158a50.149,50.149,0,0,0,19.542,18.465,52.989,52.989,0,0,0,24.773,6.156q30.158,0,46.47-28.313l22.157,10.772a79.032,79.032,0,0,1-27.543,30.158q-17.39,11.079-42.007,11.079Q1026.647,300.545,1008.8,289.774Zm85.553-89.247a51.071,51.071,0,0,0-5.539-19.695,42.1,42.1,0,0,0-15.541-16.618q-10.617-6.767-26.62-6.771-18.465,0-31.237,11.849t-16.771,31.235Z" fill="#fff"/>
        <path id="Path_3" data-name="Path 3" d="M1126.05,138.671h28.006l48.623,126.176h.615l49.24-126.176h27.389l-64.012,156.95h-26.465Z" fill="#fff"/>
        <path id="Path_4" data-name="Path 4" d="M1320.235,289.774a74.693,74.693,0,0,1-27.851-29.7q-10-18.925-10-42.622a93.484,93.484,0,0,1,9.386-41.854,75.932,75.932,0,0,1,26.62-30.466q17.23-11.382,40.007-11.387,23.08,0,40.006,10.31a68.471,68.471,0,0,1,26.005,28.466q9.074,18.162,9.078,41.545a30.661,30.661,0,0,1-.922,8H1308.541q.922,17.851,8.617,30.158a50.146,50.146,0,0,0,19.541,18.465,53,53,0,0,0,24.774,6.156q30.156,0,46.469-28.313l22.159,10.772a79.035,79.035,0,0,1-27.544,30.158q-17.39,11.079-42.007,11.079Q1338.082,300.545,1320.235,289.774Zm85.553-89.247a51.073,51.073,0,0,0-5.539-19.695,42.106,42.106,0,0,0-15.541-16.618q-10.617-6.767-26.62-6.771-18.465,0-31.236,11.849t-16.772,31.235Z" fill="#fff"/>
        <path id="Path_5" data-name="Path 5" d="M1457.794,75.275h26.158V295.621h-26.158Z" fill="#fff"/>
        <path id="Path_6" data-name="Path 6" d="M1545.812,289.466a77.446,77.446,0,0,1-28.774-30.158,91.37,91.37,0,0,1,0-84.323,77.469,77.469,0,0,1,28.774-30.159q18.465-11.079,41.545-11.079t41.546,11.079a77.513,77.513,0,0,1,28.775,30.159,91.378,91.378,0,0,1,0,84.323,77.49,77.49,0,0,1-28.775,30.158q-18.463,11.079-41.546,11.079T1545.812,289.466Zm68.473-19.85a53.423,53.423,0,0,0,20-20.772q7.536-13.539,7.539-31.7t-7.539-31.7a53.492,53.492,0,0,0-20-20.772,52.765,52.765,0,0,0-26.928-7.233,53.46,53.46,0,0,0-47.239,28.005q-7.544,13.545-7.539,31.7t7.539,31.7a53.812,53.812,0,0,0,74.167,20.772Z" fill="#fff"/>
        <path id="Path_7" data-name="Path 7" d="M1689.53,138.671h24.927v23.388h1.231q7.076-12,21.389-20.157a63.822,63.822,0,0,1,32.159-8.155,70.584,70.584,0,0,1,38.16,10.771,74.932,74.932,0,0,1,27.083,29.851q9.844,19.086,9.847,42.777,0,24-9.847,42.93a75.133,75.133,0,0,1-27.083,29.7,70.584,70.584,0,0,1-38.16,10.771,63.822,63.822,0,0,1-32.159-8.155q-14.312-8.151-21.389-19.85h-1.231l1.231,21.542v68.012H1689.53ZM1791.7,269.463a53.306,53.306,0,0,0,19.235-21.081q7.227-13.689,7.232-31.236t-7.232-31.236a53.34,53.34,0,0,0-19.235-21.081,47.859,47.859,0,0,0-51.085,0,52.456,52.456,0,0,0-19.081,20.927q-7.083,13.545-7.078,31.39t7.078,31.39a52.43,52.43,0,0,0,19.081,20.927,47.859,47.859,0,0,0,51.085,0Z" fill="#fff"/>
        <path id="Path_8" data-name="Path 8" d="M1898.179,289.774a74.689,74.689,0,0,1-27.852-29.7q-10-18.925-10-42.622a93.484,93.484,0,0,1,9.386-41.854,75.946,75.946,0,0,1,26.62-30.466q17.23-11.382,40.007-11.387,23.082,0,40.007,10.31a68.484,68.484,0,0,1,26.005,28.466q9.072,18.162,9.078,41.545a30.658,30.658,0,0,1-.923,8H1886.484q.924,17.851,8.618,30.158a50.14,50.14,0,0,0,19.541,18.465,52.992,52.992,0,0,0,24.773,6.156q30.157,0,46.47-28.313l22.158,10.772a79.035,79.035,0,0,1-27.544,30.158q-17.39,11.079-42.007,11.079Q1916.026,300.545,1898.179,289.774Zm85.552-89.247a51.054,51.054,0,0,0-5.539-19.695,42.106,42.106,0,0,0-15.541-16.618q-10.617-6.767-26.62-6.771-18.463,0-31.236,11.849t-16.772,31.235Z" fill="#fff"/>
        <path id="Path_9" data-name="Path 9" d="M2035.737,138.671h24.928v25.235h1.231q4.617-12.926,17.849-21.542a50.006,50.006,0,0,1,27.7-8.617q10.769,0,18.465,3.385v28a48.915,48.915,0,0,0-22.158-4.924,36.467,36.467,0,0,0-20.927,6.477,46.565,46.565,0,0,0-15.233,17.426,50.358,50.358,0,0,0-5.693,23.6v87.909h-26.159Z" fill="#fff"/>
        <path id="Path_10" data-name="Path 10" d="M2220.384,284.849q-21.545-15.693-29.544-44.006l24.928-10.157q5.227,19.7,19.387,32.314a48.326,48.326,0,0,0,33.237,12.617q19.077,0,32.313-10.309t13.233-28.159a32.514,32.514,0,0,0-11.233-25.388q-11.236-10-36.775-18.62l-13.849-4.923q-23.391-8.309-38.16-21.85t-14.773-37.545a52.687,52.687,0,0,1,8.618-29.082,61.642,61.642,0,0,1,24-21.389,73.59,73.59,0,0,1,34.467-8q19.078,0,33.237,7.079t22.619,17.233q8.46,10.155,11.848,20l-24.62,10.463q-3.078-11.382-14-20.618t-28.774-9.233q-16.927,0-28.928,9.54t-12,24a25.8,25.8,0,0,0,10.156,21.08q10.155,8.158,30.774,15.234l14.464,4.923q28,10.156,43.7,25.39t15.7,41.392q0,21.234-10.925,35.7a64.341,64.341,0,0,1-27.543,21.234,89.8,89.8,0,0,1-34.16,6.771A78.683,78.683,0,0,1,2220.384,284.849Z" fill="#fff"/>
        <path id="Path_11" data-name="Path 11" d="M2402.413,297.415a40.262,40.262,0,0,1-13.694-8.463,38.55,38.55,0,0,1-9.233-13.786q-3.079-7.834-3.078-19.114V162.367H2349.02v-23.7h27.388V94.355h26.159v44.316h38.161v23.7h-38.161V249.81q0,13.213,4.924,19.5,5.843,6.926,16.926,6.92A31.889,31.889,0,0,0,2441.65,271v25.542a40.415,40.415,0,0,1-9.385,3.078,65.935,65.935,0,0,1-12.157.923A49.057,49.057,0,0,1,2402.413,297.415Z" fill="#fff"/>
        <path id="Path_12" data-name="Path 12" d="M2479.965,283.927q-14.931-16.619-14.926-46.47V138.671H2491.2v94.785q0,22.469,10.156,32.93t27.389,10.463a40.587,40.587,0,0,0,23.542-7.079,48.1,48.1,0,0,0,16-18.464,52.981,52.981,0,0,0,5.693-24V138.671h26.159v156.95h-24.927V272.848h-1.232q-6.462,11.7-20.619,19.7a60.368,60.368,0,0,1-30.158,8Q2494.885,300.545,2479.965,283.927Z" fill="#fff"/>
        <path id="Path_13" data-name="Path 13" d="M2659.688,289.774a75.462,75.462,0,0,1-26.928-29.7q-9.854-18.925-9.848-42.93,0-23.7,9.848-42.777a75.261,75.261,0,0,1,26.928-29.851,69.8,69.8,0,0,1,38.006-10.771q18.155,0,32.313,8.155t21.543,20.157h1.23l-1.23-21.849V75.275h26.158V295.621H2752.78V272.54h-1.23q-7.388,11.7-21.543,19.85t-32.313,8.155A69.8,69.8,0,0,1,2659.688,289.774Zm66.78-20.311a53.992,53.992,0,0,0,19.081-20.927q7.225-13.537,7.231-31.39t-7.231-31.39a54.02,54.02,0,0,0-19.081-20.927,48.125,48.125,0,0,0-51.239,0,53.312,53.312,0,0,0-19.235,21.081q-7.233,13.7-7.231,31.236t7.231,31.236a53.278,53.278,0,0,0,19.235,21.081,48.125,48.125,0,0,0,51.239,0Z" fill="#fff"/>
        <path id="Path_14" data-name="Path 14" d="M2838.334,289.774a74.7,74.7,0,0,1-27.852-29.7q-10-18.925-10-42.622a93.484,93.484,0,0,1,9.386-41.854,75.948,75.948,0,0,1,26.62-30.466q17.232-11.382,40.007-11.387,23.082,0,40.007,10.31a68.486,68.486,0,0,1,26.005,28.466q9.073,18.162,9.078,41.545a30.658,30.658,0,0,1-.923,8H2826.64q.922,17.851,8.617,30.158a50.139,50.139,0,0,0,19.541,18.465,52.992,52.992,0,0,0,24.773,6.156q30.157,0,46.47-28.313l22.158,10.772a79.028,79.028,0,0,1-27.544,30.158q-17.388,11.079-42.007,11.079Q2856.181,300.545,2838.334,289.774Zm85.553-89.247a51.069,51.069,0,0,0-5.539-19.695,42.111,42.111,0,0,0-15.541-16.618q-10.617-6.767-26.62-6.771-18.465,0-31.237,11.849t-16.771,31.235Z" fill="#fff"/>
        <path id="Path_15" data-name="Path 15" d="M2975.893,138.671h24.927v23.081h1.231q6.462-11.692,20.619-19.85a59.484,59.484,0,0,1,30.159-8.155q28.309,0,43.238,16.464t14.926,44.777V295.621h-26.158V198.989q0-21.848-10.464-31.7t-28.62-9.848a38.21,38.21,0,0,0-22.619,7.078,47.559,47.559,0,0,0-15.541,18.62,55.146,55.146,0,0,0-5.54,24.157v88.323h-26.158Z" fill="#fff"/>
        <path id="Path_16" data-name="Path 16" d="M3177.311,297.415a40.269,40.269,0,0,1-13.7-8.463,38.56,38.56,0,0,1-9.232-13.786q-3.081-7.834-3.078-19.114V162.367h-27.389v-23.7h27.389V94.355h26.159v44.316h38.16v23.7h-38.16V249.81q0,13.213,4.924,19.5,5.841,6.926,16.925,6.92A31.891,31.891,0,0,0,3216.548,271v25.542a40.411,40.411,0,0,1-9.386,3.078,65.92,65.92,0,0,1-12.156.923A49.053,49.053,0,0,1,3177.311,297.415Z" fill="#fff"/>
        <path id="Path_17" data-name="Path 17" d="M3350.727,285.466a108.99,108.99,0,0,1-41.084-41.392q-14.933-26.313-14.926-58.626t14.926-58.625a109.01,109.01,0,0,1,41.084-41.392q26.153-15.075,58.164-15.08,24.616,0,45.084,9.386a104.991,104.991,0,0,1,35.545,26.62l-18.773,18.158q-12.623-15.075-27.543-22.158t-34.313-7.078a88.343,88.343,0,0,0-44.008,11.233,83.621,83.621,0,0,0-31.852,31.7q-11.85,20.469-11.848,47.239t11.848,47.239a83.561,83.561,0,0,0,31.852,31.7,88.3,88.3,0,0,0,44.008,11.232q40,0,68.011-32.929l19.08,18.465a111.18,111.18,0,0,1-37.852,28.775q-22.469,10.617-49.239,10.617Q3376.88,300.545,3350.727,285.466Z" fill="#fff"/>
        <path id="Path_18" data-name="Path 18" d="M3519.063,75.275h26.159V295.621h-26.159Z" fill="#fff"/>
        <path id="Path_19" data-name="Path 19" d="M3591.537,283.927q-14.931-16.619-14.926-46.47V138.671h26.159v94.785q0,22.469,10.155,32.93t27.389,10.463a40.587,40.587,0,0,0,23.542-7.079,48.086,48.086,0,0,0,16-18.464,52.979,52.979,0,0,0,5.694-24V138.671h26.158v156.95h-24.927V272.848h-1.231q-6.464,11.7-20.619,19.7a60.374,60.374,0,0,1-30.159,8Q3606.457,300.545,3591.537,283.927Z" fill="#fff"/>
        <path id="Path_20" data-name="Path 20" d="M3791.876,292.39q-14.31-8.151-21.389-19.85h-1.23v23.081h-24.928V75.275h26.158V140.21l-1.23,21.849h1.23q7.077-12,21.389-20.157a63.825,63.825,0,0,1,32.159-8.155,70.59,70.59,0,0,1,38.161,10.771,74.915,74.915,0,0,1,27.081,29.851q9.846,19.086,9.848,42.777,0,24-9.848,42.93a75.115,75.115,0,0,1-27.081,29.7,70.59,70.59,0,0,1-38.161,10.771A63.825,63.825,0,0,1,3791.876,292.39Zm54.625-22.927a53.3,53.3,0,0,0,19.234-21.081q7.227-13.689,7.232-31.236t-7.232-31.236a53.338,53.338,0,0,0-19.234-21.081,47.861,47.861,0,0,0-51.086,0,52.454,52.454,0,0,0-19.08,20.927q-7.083,13.545-7.078,31.39t7.078,31.39a52.428,52.428,0,0,0,19.08,20.927,47.861,47.861,0,0,0,51.086,0Z" fill="#fff"/>
        <path id="Path_21" data-name="Path 21" d="M3934.517,288.7a64.634,64.634,0,0,1-24.005-30.313l23.388-10.463q5.844,14.157,17.388,21.849a44.8,44.8,0,0,0,25.39,7.694q14.77,0,25.234-6t10.464-17.08q0-9.846-8.31-15.849t-26.158-10.31l-19.08-4.923q-18.774-4.615-30.774-15.7t-12-28.62a37.348,37.348,0,0,1,8.155-23.849,52.162,52.162,0,0,1,21.7-15.85,76.48,76.48,0,0,1,29.236-5.539q20.615,0,36.775,8.925t22.927,24.927l-22.773,10.463q-10.466-20.923-37.237-20.926-12.925,0-22.619,6t-9.694,15.233a17.046,17.046,0,0,0,6.77,14q6.766,5.39,20.312,8.771l22.772,5.847q23.082,5.852,34.775,17.388a38.063,38.063,0,0,1,11.7,28.159,40.764,40.764,0,0,1-8.309,25.389,52.821,52.821,0,0,1-22.466,16.772,81.543,81.543,0,0,1-31.389,5.847Q3951.441,300.545,3934.517,288.7Z" fill="#fff"/>
      </g>
      <g id="Group_4" data-name="Group 4">
        <path id="Path_22" data-name="Path 22" d="M252.457,243.169,77.206,141.99a49.9,49.9,0,1,0-49.9,86.434L202.554,329.6a49.9,49.9,0,0,0,49.9-86.435Z" fill="#fff"/>
        <path id="Path_23" data-name="Path 23" d="M601.943,141.99,426.693,40.807a49.9,49.9,0,1,0-49.9,86.435L552.04,228.424a49.9,49.9,0,1,0,49.9-86.434Z" fill="#fff"/>
        <g id="Group_2" data-name="Group 2">
          <path id="Path_24" data-name="Path 24" d="M545.1,240.444l-81.793-47.225-86.517,49.95a49.9,49.9,0,1,0,49.9,86.435l140.874-81.333A63.9,63.9,0,0,1,545.1,240.444Z" fill="#fff"/>
        </g>
        <g id="Group_3" data-name="Group 3">
          <path id="Path_25" data-name="Path 25" d="M84.145,129.97l81.8,47.223,86.517-49.951a49.9,49.9,0,0,0-49.9-86.435L61.682,122.14A63.867,63.867,0,0,1,84.145,129.97Z" fill="#fff"/>
        </g>
      </g>
    </g>
    <text id="Modern_Education_Society_s_College_Of_Engineering" data-name="Modern Education Society&apos;s College Of Engineering" transform="translate(772 498)" fill="#fff" font-size="141" font-family="GoogleSans-Regular, Google Sans"><tspan x="0" y="0">Modern Education Society&apos;s College Of Engineering</tspan></text>
  </g>
</svg>
